<?xml version="1.0" encoding="utf-8"?>
<!-- Generator: Adobe Illustrator 19.0.0, SVG Export Plug-In . SVG Version: 6.00 Build 0)  -->
<svg version="1.1" id="Layer_1" xmlns="http://www.w3.org/2000/svg" xmlns:xlink="http://www.w3.org/1999/xlink" x="0px" y="0px"
	 viewBox="450 -206 1200 600" style="enable-background:new 450 -206 1200 600;" xml:space="preserve">
<style type="text/css">
	.st0{fill:#F42AAC;}
	.st1{fill:#2FEFF4;}
	.st2{enable-background:new    ;}
	.st3{fill:#04ADA8;}
</style>
<g id="XMLID_121_">
	<path id="XMLID_128_" d="M889.7-45.6c-4.1-5-9.2-10.4-11.8-12.3c-2.7-1.9-6.3-8.7-3.1-13.9c3.2-5.2,7.9-11.6,4-19.5
		c-3.9-7.9-4.3-11.1-4.3-11.1s-1.1,6.5-3.3,12.3c-2.2,5.8-3.8,11.7-4.5,18.2c-0.6,6.5-3.5,8.1-7,9.4c-3.6,1.3-9,0-12.5-7.3
		c-3.5-7.2-12.1-13.7-27-17c0,0,3.2,17.2,13.4,22.2s13.4,8.5,13.5,12.5c0.5,12.6-19.6,25.7-39.7,14.7s-55.2-59.8-120.5-48.7
		S578.6,27.1,564.4,78.4c-14.2,51.3-44.2,76.8-90.3,81.2c0,0,35.4,11.9,66.6-9s47-55.5,55.5-76.7s26.8-49,46.3-57.3
		c0,0,3.2,14.6,12.5,22.6s9.9,32.9-0.9,45.5c-10.8,12.5-26,32.9-26,32.9s5.4,46.4,7.7,61.6c2.4,15.2-4.1,37.5-13.8,41.8
		c0,0,1.7,4.9,6.8,4.1c0,0-3.7,6.3-3.1,10.4c0.6,4.1-1.6,11.1-4.6,13c0,0,8.8,4.8,15.4-7.1s17.7-37.7,17.7-37.7s-3-34.5-5.7-51.5
		c-2.7-17.1,16.5-45.5,29.3-54.2c12.8-8.6,57.2-24,88.3-69.5c0,0,23.6,4.5,42.6-1.3c1.3,4.3,3.2,9.5,4,14.4
		c1.1,6.9-3.8,9.8-11.7,13.5s-5.8,12.6-5.8,12.6s3.3-1.6,14.6-4.1s12.1-15.7,11.2-25.8c-0.8-9.5,6.9-20.3,7.8-21.6
		C841,7,848.4-3.2,853.1-10.1c6.2-9,26-12.1,34.9-12.1c9,0,23.9-0.9,23.9-0.9l-0.5-9.4C911.6-32.5,893.8-40.6,889.7-45.6z"/>
	<g id="XMLID_124_">
		<path id="XMLID_125_" class="st0" d="M747.2,24c-10,8.2-19.2,12.3-31.8,14.3c-31.1,4.9-58.1-14.4-62.8-44.9
			c-4.7-30.1,15.1-57.3,45-62c14.4-2.2,28.7,0.8,40.3,8.7c11,7.5,18.4,18.7,20.3,30.8c2.5,16.3-2.2,27.5-12,29.4
			c-3.1,0.6-6.4,0.9-8.7-0.9l-0.4-0.3c-1.1-1.2-1.8-2.7-2.1-4.5c-0.2-1.1-0.3-2.9-0.3-4.4l0.7-38.2l-16.7-0.1l-0.4,7.6
			c-4.7-4.6-11-7.9-20.6-6.4c-16.2,2.5-28.6,20.1-25.6,39.5c2.6,16.5,15.4,24.9,29.5,22.7c9-1.4,15.1-6.5,19.2-11.5
			c4.1,3.5,11.3,6.7,22.5,5c0.2,0,0.3-0.1,0.5-0.1c0.2,0,0.5-0.1,0.7-0.1c17.6-2.7,25.7-17.1,22.3-39c-2.2-14.2-11-27.4-24-36.2
			c-13.5-9.2-30-12.8-46.5-10.3c-34.2,5.3-57.6,37.5-52.3,71.6c5.4,34.6,37.3,57.3,72.7,51.8c13.7-2.1,25-7.4,35.7-16.4
			c7.8-6.7,12.4-8.9,18.9-8.5C771.3,21.7,760.5,13.4,747.2,24z M704.3,0.4c-7.6,1.2-13.8-2.8-15.1-11.4
			c-1.7-11.1,4.6-20.7,13.5-22.1c7.5-1.2,13.7,3.1,14.9,11C719.4-10.8,713-1,704.3,0.4z"/>
	</g>
	<path id="XMLID_123_" class="st1" d="M874.3-34.1c0,0-2-3.7-1.7-6.6c0-0.4,0-0.7,0-1c0-0.4,0-0.7-0.1-1.1c-0.7-4.5-4.9-7.5-9.3-6.8
		c-0.2,0-0.4,0.1-0.6,0.1c-0.3,0-0.6,0.1-0.9,0.2c-2.8,1-6.8-0.1-6.8-0.1s0.2,0.9,0.6,2.1c0.3,1,0.7,5.1,0.8,6.1
		c0,0.3,0,0.6,0.1,0.9c0.7,4.5,4.9,7.5,9.3,6.8c0.2,0,0.4-0.1,0.5-0.1c1.1-0.2,4.9-0.7,5.9-0.6C873.3-34.1,874.3-34.1,874.3-34.1z"
		/>
	<circle id="XMLID_122_" cx="864.6" cy="-41.5" r="6.3"/>
</g>
<g id="XMLID_144_">
	<path id="XMLID_147_" d="M863.8,59.5h13.1c2.2,7,5.7,12.5,10.7,16.4s10.9,5.9,17.6,5.9c4.1,0,7.4-0.9,9.8-2.6
		c2.5-1.7,3.7-4,3.7-6.8c0-4.4-5.3-8-16-11c-3.5-0.9-6.2-1.7-8.2-2.3c-6.4-1.9-11.4-3.6-14.8-4.9c-3.5-1.4-6-2.6-7.5-3.8
		c-3.6-2.7-6.3-5.7-8.1-9.1c-1.7-3.3-2.6-7.1-2.6-11.3c0-9.1,3.4-16.4,10.1-22c6.8-5.6,15.7-8.4,26.7-8.4c5.6,0,10.9,0.6,15.8,1.6
		c4.9,1.1,9.6,2.8,14.2,5.1l2.4-4.6h13v31.5h-15.2c-1.5-6.4-4.3-11.2-8.4-14.3c-4.1-3.1-9.7-4.7-16.6-4.7c-4,0-7.4,0.9-10,2.8
		c-2.6,1.8-3.9,4.1-3.9,6.8c0,4,5,7.1,15,9.2c2.5,0.5,4.4,0.9,5.7,1.3c14,3.2,23.8,7.2,29.4,12s8.4,11.3,8.4,19.5
		c0,9.1-3.5,16.4-10.4,21.9c-6.9,5.4-16.3,8.1-28,8.1c-5.4,0-10.5-0.6-15.5-1.8c-5-1.2-9.9-3-14.8-5.5l-3.4,5h-12.4v-34H863.8z"/>
	<path id="XMLID_149_" d="M983.1,16.4c-5,0-8.8,1.7-11.4,5c-2.6,3.4-4,8.3-4,14.7v0.4h-13.4V2.2h95.4v34.3h-13.3v-0.4
		c0-6.4-1.3-11.3-4-14.6c-2.7-3.4-6.5-5.1-11.5-5.1h-4v55.8c0,3.5,0.5,5.6,1.4,6.5s3,1.3,6.2,1.3h7.6v12.9h-59.6V80h7.1
		c3,0,5-0.4,6-1.1s1.5-3,1.5-6.7V16.4L983.1,16.4L983.1,16.4z"/>
	<path id="XMLID_151_" d="M1091.3,92.9V80h4.1c3.4,0,5.5-0.2,6.3-0.6s1.2-1.1,1.2-2.1c0-0.7-0.1-1.4-0.2-2c-0.1-0.6-0.3-1.3-0.4-1.9
		l-3.2-9.7h-24.4l-2.8,8.6c-0.5,1.3-0.8,2.4-1,3.1s-0.3,1.4-0.3,2c0,0.8,0.5,1.4,1.6,1.8c1.1,0.4,2.7,0.7,4.7,0.7h4.5v12.9h-40.5V80
		h3.4c2.3,0,4.2-0.7,5.8-2.2c1.6-1.5,2.9-3.8,4.1-7.1L1078,2.2h32.8l21.2,68.2c1.5,4.5,2.8,7.2,4,8.1s3.1,1.4,5.7,1.4h4.7v12.9
		h-55.1V92.9z M1094.7,50.7l-8.2-27.4l-7.7,27.4H1094.7z"/>
	<path id="XMLID_154_" d="M1154.6,72.2V22.7c0-3.5-0.4-5.7-1.3-6.5c-0.9-0.8-2.9-1.2-6.1-1.2h-4.6V2.2h62.4c11,0,19.3,1.9,24.7,5.6
		c5.4,3.7,8.1,9.4,8.1,17c0,5.1-1.7,9.4-5,12.9c-3.3,3.5-8.1,5.8-14.2,7.1c6.2,0.7,10.3,2.6,12.5,5.6s3.3,9.9,3.3,20.7
		c0,3.3,0.3,5.5,0.8,6.8c0.6,1.3,1.5,1.9,2.7,1.9c1.2,0,2.1-0.8,2.7-2.3s0.9-3.9,0.9-7c0-0.3,0-0.8-0.1-1.5c0-0.7-0.1-1.2-0.1-1.6
		h9.2c0,0.4,0,1,0.1,1.8c0,0.8,0.1,1.4,0.1,1.8c0,8.4-1.7,14.6-5.2,18.4s-9.1,5.7-16.8,5.7c-8.2,0-14.2-1.7-18-5.1
		c-3.8-3.4-5.6-8.9-5.6-16.4V66c0-6.1-0.8-9.9-2.4-11.6c-1.6-1.6-4.9-2.5-10-2.5h-8.1v20.3c0,3.5,0.4,5.7,1.4,6.5
		c0.9,0.8,2.9,1.3,6,1.3h5.1v12.9h-54.6V80h4.6c3.2,0,5.2-0.4,6.1-1.3C1154.1,77.9,1154.6,75.7,1154.6,72.2z M1184.3,39.6h7.9
		c5.6,0,9.5-0.9,11.8-2.7s3.4-4.8,3.4-8.9c0-4.6-1-7.8-3.1-9.6s-5.8-2.8-11-2.8h-8.9L1184.3,39.6L1184.3,39.6z"/>
	<path id="XMLID_157_" d="M1276.9,16.4c-5,0-8.8,1.7-11.4,5c-2.6,3.4-4,8.3-4,14.7v0.4h-13.4V2.2h95.4v34.3h-13.3v-0.4
		c0-6.4-1.3-11.3-4-14.6c-2.7-3.4-6.5-5.1-11.5-5.1h-4v55.8c0,3.5,0.5,5.6,1.4,6.5c0.9,0.9,3,1.3,6.2,1.3h7.6v12.9h-59.6V80h7.1
		c3,0,5-0.4,6-1.1s1.5-3,1.5-6.7V16.4L1276.9,16.4L1276.9,16.4z"/>
	<path id="XMLID_159_" class="st0" d="M1378.9,16.4c-5,0-8.8,1.7-11.4,5c-2.6,3.4-4,8.3-4,14.7v0.4h-13.4V2.2h95.4v34.3h-13.3v-0.4
		c0-6.4-1.3-11.3-4-14.6c-2.7-3.4-6.5-5.1-11.5-5.1h-4v55.8c0,3.5,0.5,5.6,1.4,6.5c0.9,0.9,3,1.3,6.2,1.3h7.6v12.9h-59.6V80h7.1
		c3,0,5-0.4,6-1.1s1.5-3,1.5-6.7V16.4L1378.9,16.4L1378.9,16.4z"/>
	<path id="XMLID_161_" class="st0" d="M1505,2.2V15h-5.1c-3,0-4.9,0.4-5.9,1.1c-0.9,0.7-1.4,2.7-1.4,6v0.7v57h6.1
		c5.6,0,9.6-0.3,11.9-0.9s4.1-1.6,5.5-3.1c1.7-1.8,3-4.4,3.9-7.5c0.9-3.2,1.5-7.5,1.8-13.1h14.1V93h-85.4V80h4.6
		c3.2,0,5.2-0.4,6.1-1.3c0.9-0.8,1.4-3,1.4-6.5V22.7c0-3.5-0.4-5.7-1.3-6.5c-0.9-0.8-2.9-1.2-6.1-1.2h-4.6V2.2L1505,2.2L1505,2.2z"
		/>
	<path id="XMLID_163_" class="st0" d="M1544.6,59.5h13.1c2.2,7,5.7,12.5,10.7,16.4s10.9,5.9,17.6,5.9c4.1,0,7.4-0.9,9.8-2.6
		c2.5-1.7,3.7-4,3.7-6.8c0-4.4-5.3-8-16-11c-3.5-0.9-6.2-1.7-8.2-2.3c-6.4-1.9-11.4-3.6-14.8-4.9c-3.5-1.4-6-2.6-7.5-3.8
		c-3.6-2.7-6.3-5.7-8.1-9.1c-1.7-3.3-2.6-7.1-2.6-11.3c0-9.1,3.4-16.4,10.1-22c6.8-5.6,15.7-8.4,26.7-8.4c5.6,0,10.9,0.6,15.8,1.6
		c4.9,1.1,9.6,2.8,14.2,5.1l2.4-4.6h13v31.5h-15.2c-1.5-6.4-4.3-11.2-8.4-14.3s-9.7-4.7-16.6-4.7c-4,0-7.4,0.9-10,2.8
		c-2.6,1.8-3.9,4.1-3.9,6.8c0,4,5,7.1,15,9.2c2.5,0.5,4.4,0.9,5.7,1.3c14,3.2,23.8,7.2,29.4,12s8.4,11.3,8.4,19.5
		c0,9.1-3.5,16.4-10.4,21.9c-6.9,5.4-16.3,8.1-28,8.1c-5.4,0-10.5-0.6-15.5-1.8c-5-1.2-9.9-3-14.8-5.5l-3.4,5h-12.4v-34H1544.6z"/>
	<path id="XMLID_165_" d="M945.3,103.8v30.8h-13.1c-0.8-4-1.7-7.1-2.7-9.4c-0.9-2.2-2.1-4.1-3.5-5.4c-1.6-1.6-3.5-2.7-5.7-3.3
		c-2.2-0.7-5.9-1-10.9-1H907h-10.6v22.7h3.2c3.7,0,6.3-0.9,7.9-2.7c1.5-1.8,2.3-5,2.3-9.6v-0.7h10.3v37.7h-10.3
		c-0.2-5.8-0.9-9.5-2.3-11.2c-1.3-1.7-3.9-2.6-7.7-2.6h-3.3v25.7H911c5.7,0,9.6-0.3,11.7-1s3.8-1.8,5-3.5c1.3-2,2.3-4.4,3-7.2
		c0.7-2.8,1.2-6.4,1.5-10.7h13.6v34.1h-87.2v-11.7h4.2c2.7,0,4.5-0.3,5.4-1c0.9-0.6,1.3-2.5,1.3-5.5v-0.6v-45.1
		c0-3.2-0.4-5.2-1.2-5.9c-0.8-0.7-2.7-1.1-5.6-1.1h-4v-11.7L945.3,103.8L945.3,103.8z"/>
	<path id="XMLID_167_" d="M1002.1,144.9c0.1-0.4,0.2-0.7,0.3-1s0.1-0.6,0.1-1c0-1.2-0.5-2.2-1.4-2.7c-1-0.6-2.6-1-4.9-1.1v-10.8
		h28.5v10.9h-0.7c-2.4,0-4.4,0.5-5.7,1.5c-1.4,1-2.5,2.7-3.3,5l-13.9,40.8h-26.9L961,144.9c-0.7-2.5-1.5-4.1-2.2-4.8
		c-0.7-0.7-1.9-1-3.5-1h-2.2v-10.9h38v10.9h-1.7c-1.8,0-3.1,0.2-3.8,0.7s-1.1,1.3-1.1,2.6c0,0.3,0,0.7,0.2,1.1
		c0.1,0.4,0.2,0.9,0.4,1.4l8.5,26.1L1002.1,144.9z"/>
	<path id="XMLID_169_" d="M1090.1,166.2c-1.4,7.5-4.7,13.2-9.7,16.9c-5.1,3.7-12.1,5.6-21.1,5.6c-10.2,0-18.3-2.8-24.2-8.4
		s-8.9-13.2-8.9-22.9c0-9.5,3-17.2,8.9-22.8c6-5.7,13.9-8.5,24-8.5c9.9,0,17.5,2.8,22.8,8.5c5.3,5.6,8,13.7,8,24.2v2.1h-38.7v1.2
		c0,4.9,1,8.6,3.1,11.3c2,2.6,5,3.9,8.7,3.9c3.2,0,5.8-0.9,7.9-2.8c2-1.9,3.4-4.6,4.1-8.1h15.1V166.2z M1051.1,150h17.9v-0.9
		c0-3.8-0.8-6.8-2.3-8.9c-1.6-2.1-3.8-3.1-6.7-3.1c-2.8,0-5,1.1-6.5,3.4C1051.9,142.7,1051.1,145.9,1051.1,150z"/>
	<path id="XMLID_172_" d="M1127.2,134c2.1-2.6,4.4-4.6,6.9-5.8c2.5-1.3,5.2-1.9,8.1-1.9c4.4,0,7.9,1.3,10.6,3.9c2.6,2.6,4,6,4,10.4
		c0,3.7-1.1,6.7-3.2,9c-2.1,2.2-4.9,3.4-8.3,3.4c-2.7,0-5-0.9-6.8-2.6s-2.7-3.9-2.7-6.4c0-1.8,0.4-3.3,1.3-4.6
		c0.9-1.3,2.2-2.4,4-3.4c-0.5-0.1-0.9-0.2-1.4-0.3c-0.4-0.1-0.9-0.1-1.3-0.1c-3.3,0-5.9,1.5-7.8,4.6s-2.9,7.3-2.9,12.7V170
		c0,2.4,0.4,3.9,1.1,4.7c0.8,0.7,2.3,1.1,4.7,1.1h3.9v10.8h-41.9v-10.8h2.1c2.4,0,3.9-0.4,4.7-1.1c0.7-0.7,1.1-2.3,1.1-4.7v-24.9
		c0-2.4-0.4-4-1.1-4.7c-0.7-0.7-2.3-1.1-4.7-1.1h-2.1v-10.9h31.5v5.6H1127.2z"/>
	<path id="XMLID_174_" d="M1210.6,144.6c0.1-0.2,0.2-0.6,0.4-1c0.3-0.7,0.4-1.1,0.4-1.3c0-1.1-0.5-1.8-1.5-2.3c-1-0.4-3-0.7-6-0.8
		v-10.8h29.7v10.9c-2.5,0-4.5,0.4-5.8,1.2c-1.3,0.8-2.6,2.6-3.7,5.3l-18.6,45.7c-2.9,7.3-6.6,12.7-11.1,16.2
		c-4.5,3.6-9.8,5.3-15.9,5.3c-6,0-10.8-1.5-14.4-4.4c-3.6-2.9-5.4-6.9-5.4-11.8c0-3.5,1.1-6.3,3.3-8.5s5.1-3.3,8.6-3.3
		c3.1,0,5.6,0.8,7.5,2.5s2.9,3.8,2.9,6.4c0,2.3-0.7,4.2-2,5.7s-3.2,2.5-5.8,3c0.6,0.7,1.3,1.3,2,1.6c0.7,0.3,1.6,0.5,2.5,0.5
		c2.4,0,4.7-1,7-3.1c2.3-2.1,4.3-5,6.1-8.9l-19.4-44.2c-0.1-0.2-0.2-0.4-0.4-0.8c-2.5-5.7-5.2-8.5-8-8.5h-2v-10.9h38v10.9
		c-2.4,0-3.9,0.2-4.5,0.5s-0.8,0.9-0.8,1.7c0,0.6,0.2,1.4,0.5,2.3c0.1,0.3,0.2,0.5,0.3,0.7l8.4,20.5L1210.6,144.6z"/>
	<path id="XMLID_176_" d="M1277.4,186.4h-25.1l-9.9-38.4c-1-3.9-2-6.3-2.7-7.3c-0.8-1-2-1.5-3.6-1.5h-2.8v-10.9h34.7v10.9h-1.1
		c-1.4,0-2.3,0.2-2.9,0.8c-0.6,0.5-0.9,1.4-0.9,2.6c0,0.4,0,0.8,0.1,1.2s0.2,0.8,0.3,1.2l6.7,26.7l7.9-26.8c0.1-0.4,0.2-0.8,0.3-1.1
		c0.1-0.4,0.1-0.7,0.1-0.9c0-1.1-0.4-1.9-1.1-2.5s-2-1-3.8-1.2v-10.9h34.5v10.9h-1.1c-1.3,0-2.2,0.2-2.7,0.8
		c-0.5,0.5-0.8,1.4-0.8,2.6c0,0.4,0,0.8,0.1,1.2c0.1,0.4,0.2,0.8,0.3,1.2l6.5,26.1l7.5-26.1c0.1-0.3,0.1-0.6,0.2-0.9
		c0-0.3,0.1-0.7,0.1-1.2c0-1.1-0.4-1.9-1.1-2.5c-0.7-0.6-2-1-3.7-1.2v-10.9h25.3v10.9c-2.4,0-4.3,0.5-5.6,1.4
		c-1.3,1-2.3,2.6-3.1,5.1l-13,40.7h-24.2l-7.1-28.2L1277.4,186.4z"/>
	<path id="XMLID_178_" d="M1413.3,169.8c0,2.4,0.4,3.9,1.1,4.7c0.8,0.7,2.3,1.1,4.7,1.1h1.4v10.8h-38v-10.8h1.4c2,0,3.4-0.4,4.1-1.1
		s1-2.3,1-4.7v-21c0-3.4-0.7-5.9-2-7.5s-3.3-2.5-5.9-2.5c-2.8,0-5.1,1.1-6.8,3.2c-1.7,2.1-2.5,5-2.5,8.6v19.1c0,2.3,0.4,3.9,1.1,4.6
		c0.7,0.8,2.1,1.1,4.2,1.1h1.3v10.8h-38.6v-10.8h2.1c2.3,0,3.9-0.4,4.6-1.1c0.8-0.7,1.1-2.3,1.1-4.7v-49.4c0-2.4-0.4-3.9-1.1-4.7
		c-0.8-0.7-2.3-1.1-4.6-1.1h-2.1v-10.8h32v33.3c2.7-3.6,5.8-6.2,9.2-7.9c3.4-1.6,7.3-2.5,11.9-2.5c7.4,0,12.7,1.6,15.7,4.8
		c3.1,3.2,4.6,8.8,4.6,16.7v21.8H1413.3z"/>
	<path id="XMLID_180_" d="M1489.1,166.2c-1.4,7.5-4.7,13.2-9.7,16.9c-5.1,3.7-12.1,5.6-21.1,5.6c-10.2,0-18.3-2.8-24.2-8.4
		c-5.9-5.6-8.9-13.2-8.9-22.9c0-9.5,3-17.2,8.9-22.8c6-5.7,13.9-8.5,24-8.5c9.9,0,17.5,2.8,22.8,8.5c5.3,5.6,8,13.7,8,24.2v2.1
		h-38.7v1.2c0,4.9,1,8.6,3.1,11.3c2,2.6,5,3.9,8.7,3.9c3.2,0,5.8-0.9,7.9-2.8c2-1.9,3.4-4.6,4.1-8.1h15.1V166.2z M1450.2,150h17.9
		v-0.9c0-3.8-0.8-6.8-2.3-8.9c-1.6-2.1-3.8-3.1-6.7-3.1c-2.8,0-5,1.1-6.5,3.4C1450.9,142.7,1450.2,145.9,1450.2,150z"/>
	<path id="XMLID_183_" d="M1526.3,134c2.1-2.6,4.4-4.6,6.9-5.8c2.5-1.3,5.2-1.9,8.1-1.9c4.4,0,7.9,1.3,10.6,3.9c2.6,2.6,4,6,4,10.4
		c0,3.7-1.1,6.7-3.2,9s-4.9,3.4-8.3,3.4c-2.7,0-5-0.9-6.8-2.6s-2.7-3.9-2.7-6.4c0-1.8,0.4-3.3,1.3-4.6c0.9-1.3,2.2-2.4,4-3.4
		c-0.5-0.1-0.9-0.2-1.4-0.3c-0.4-0.1-0.9-0.1-1.3-0.1c-3.3,0-5.9,1.5-7.8,4.6s-2.9,7.3-2.9,12.7V170c0,2.4,0.4,3.9,1.1,4.7
		c0.8,0.7,2.3,1.1,4.7,1.1h3.9v10.8h-41.9v-10.8h2.1c2.4,0,3.9-0.4,4.7-1.1c0.7-0.7,1.1-2.3,1.1-4.7v-24.9c0-2.4-0.4-4-1.1-4.7
		s-2.3-1.1-4.7-1.1h-2.1v-10.9h31.5v5.6H1526.3z"/>
	<path id="XMLID_185_" d="M1624.7,166.2c-1.4,7.5-4.7,13.2-9.7,16.9c-5.1,3.7-12.1,5.6-21.1,5.6c-10.2,0-18.3-2.8-24.2-8.4
		c-5.9-5.6-8.9-13.2-8.9-22.9c0-9.5,3-17.2,8.9-22.8c6-5.7,13.9-8.5,24-8.5c9.9,0,17.5,2.8,22.8,8.5c5.3,5.6,8,13.7,8,24.2v2.1
		h-38.7v1.2c0,4.9,1,8.6,3.1,11.3c2,2.6,5,3.9,8.7,3.9c3.2,0,5.8-0.9,7.9-2.8c2-1.9,3.4-4.6,4.1-8.1h15.1V166.2z M1585.8,150h17.9
		v-0.9c0-3.8-0.8-6.8-2.3-8.9c-1.6-2.1-3.8-3.1-6.7-3.1c-2.8,0-5,1.1-6.5,3.4C1586.5,142.7,1585.8,145.9,1585.8,150z"/>
</g>
<g class="st2">
	<path class="st3" d="M1233,205.1c1.8,0.9,3.2,2.3,4.4,4.1l-3.3,3c-0.8-1.6-1.7-2.8-2.9-3.6c-1.1-0.7-2.7-1.1-4.6-1.1
		c-1.9,0-3.3,0.4-4.4,1.1c-1,0.8-1.6,1.7-1.6,2.9c0,1.1,0.5,2,1.5,2.6c1,0.6,2.8,1.2,5.4,1.7c2.4,0.4,4.4,1,5.8,1.7s2.5,1.5,3.1,2.5
		s1,2.2,1,3.7c0,1.6-0.5,3-1.4,4.2c-0.9,1.2-2.2,2.1-3.8,2.8c-1.6,0.6-3.5,1-5.6,1c-5.5,0-9.4-1.8-11.6-5.5l3.1-3.1
		c0.9,1.6,2,2.8,3.4,3.6c1.4,0.8,3.1,1.1,5.1,1.1c1.9,0,3.5-0.3,4.6-1s1.7-1.6,1.7-2.8c0-1-0.5-1.8-1.5-2.4c-1-0.6-2.7-1.1-5.2-1.6
		c-2.5-0.5-4.5-1-5.9-1.7c-1.5-0.7-2.5-1.5-3.2-2.5c-0.7-1-1-2.2-1-3.7c0-1.5,0.4-2.9,1.3-4.2c0.8-1.3,2.1-2.3,3.7-3
		c1.6-0.7,3.5-1.1,5.6-1.1C1229.1,203.7,1231.2,204.2,1233,205.1z"/>
	<path class="st3" d="M1262,228.1l-0.3,2.9c-0.7,0.3-1.6,0.5-2.5,0.5c-1.2,0-2.1-0.2-2.8-0.7c-0.7-0.5-1.2-1.2-1.4-2.3
		c-0.6,1-1.6,1.7-2.8,2.2c-1.2,0.5-2.6,0.8-4.1,0.8c-2,0-3.6-0.5-4.8-1.4c-1.2-0.9-1.8-2.3-1.8-4c0-1.6,0.7-3,2-4.1s3.3-1.9,6-2.4
		l5.2-0.9v-1.1c0-1.3-0.4-2.2-1.1-3c-0.7-0.7-1.8-1.1-3.1-1.1c-2.7,0-4.5,1.2-5.3,3.7l-3.4-1.8c0.5-1.6,1.5-2.9,3-3.9
		c1.5-1,3.4-1.4,5.6-1.4c2.6,0,4.7,0.6,6.3,1.8c1.6,1.2,2.3,3,2.3,5.4v9.3c0,0.5,0.1,0.9,0.3,1.1c0.2,0.2,0.6,0.4,1.2,0.4
		C1261,228.3,1261.5,228.2,1262,228.1z M1252.9,227.2c1.1-0.7,1.7-1.7,1.7-2.8v-2.5l-4.5,0.9c-1.4,0.3-2.5,0.7-3.2,1.1
		c-0.7,0.5-1,1.1-1,2c0,0.8,0.3,1.3,0.8,1.7s1.3,0.6,2.3,0.6C1250.4,228.2,1251.7,227.9,1252.9,227.2z"/>
	<path class="st3" d="M1271.7,210.7h6.6v3.4h-6.5v17h-4.4v-17h-3.8v-3.4h3.8v-2.9c0-2.1,0.6-3.7,1.9-4.8c1.3-1.1,3-1.7,5.3-1.7
		c0.8,0,1.6,0.1,2.3,0.3c0.7,0.2,1.2,0.4,1.6,0.7l-0.8,3.2c-0.6-0.4-1.4-0.6-2.3-0.6c-2.4,0-3.6,1.1-3.6,3.3V210.7z"/>
	<path class="st3" d="M1300,222.6h-15c0.2,1.8,0.9,3.2,1.9,4.1s2.4,1.4,4,1.4c1.3,0,2.4-0.2,3.3-0.7c0.9-0.5,1.5-1.2,1.8-2.1
		l3.6,1.5c-1.5,3.2-4.5,4.7-8.8,4.7c-3.2,0-5.7-0.9-7.6-2.8c-1.8-1.9-2.7-4.5-2.7-7.8c0-3.4,0.9-6,2.6-7.8c1.7-1.9,4.2-2.8,7.4-2.8
		c3,0,5.3,0.9,7,2.7c1.7,1.8,2.5,4.3,2.5,7.3C1300.1,221.1,1300.1,221.8,1300,222.6z M1286.8,215.1c-1,0.9-1.6,2.3-1.8,4.1h11.1
		c-0.2-1.7-0.8-3.1-1.7-4c-0.9-1-2.2-1.4-3.7-1.4C1289.1,213.8,1287.8,214.2,1286.8,215.1z"/>
	<path class="st3" d="M1318.4,210.7l-0.7,4c-0.6-0.4-1.5-0.5-2.6-0.5c-0.9,0-1.7,0.2-2.5,0.7c-0.8,0.5-1.4,1.2-1.9,2.1
		s-0.8,2-0.8,3.4v10.8h-4.4v-20.5h3.7l0.4,3.7c1.1-2.7,3.3-4.1,6.5-4.1C1317.1,210.3,1317.9,210.4,1318.4,210.7z"/>
	<path class="st3" d="M1357.8,204.1v27h-4.4v-11.8H1340v11.8h-4.4v-27h4.4v11.5h13.3v-11.5H1357.8z"/>
	<path class="st3" d="M1381.4,213.1c1.8,1.9,2.7,4.5,2.7,7.8c0,3.3-0.9,5.9-2.7,7.8c-1.8,1.9-4.3,2.8-7.5,2.8
		c-3.2,0-5.7-0.9-7.5-2.8c-1.8-1.9-2.7-4.5-2.7-7.8c0-3.3,0.9-5.9,2.7-7.8c1.8-1.9,4.3-2.8,7.5-2.8
		C1377.1,210.3,1379.6,211.2,1381.4,213.1z M1369.6,215.6c-1,1.2-1.5,3-1.5,5.3c0,2.3,0.5,4.1,1.5,5.3s2.4,1.9,4.3,1.9
		c1.9,0,3.3-0.6,4.3-1.9s1.5-3,1.5-5.3c0-2.3-0.5-4.1-1.5-5.3c-1-1.3-2.4-1.9-4.3-1.9C1372,213.7,1370.6,214.3,1369.6,215.6z"/>
	<path class="st3" d="M1407.3,213.1c1.6,1.9,2.4,4.5,2.4,7.8c0,3.3-0.8,5.9-2.4,7.8c-1.6,1.9-3.8,2.8-6.6,2.8c-1.5,0-2.8-0.3-4-1
		s-2.1-1.6-2.7-2.7v11.9h-4.4v-29.1h3.8l0.2,3.8c0.6-1.3,1.5-2.3,2.7-3.1c1.2-0.8,2.6-1.1,4.2-1.1
		C1403.5,210.3,1405.7,211.2,1407.3,213.1z M1403.9,226.1c1-1.2,1.5-3,1.5-5.2c0-2.2-0.5-4-1.5-5.2c-1-1.3-2.4-1.9-4.2-1.9
		c-1.7,0-3,0.6-4,1.7s-1.5,2.7-1.7,4.7v1.6c0.1,2,0.7,3.5,1.7,4.6c1,1.1,2.3,1.7,4,1.7C1401.5,228,1402.9,227.4,1403.9,226.1z"/>
	<path class="st3" d="M1417.3,230.5c-1.6-0.7-2.8-1.8-3.6-3.2l2.9-2.5c0.5,1.2,1.3,2,2.4,2.6s2.4,0.8,3.9,0.8c1.4,0,2.5-0.2,3.2-0.7
		c0.8-0.5,1.1-1,1.1-1.8c0-0.7-0.4-1.2-1.1-1.6c-0.7-0.4-1.9-0.8-3.7-1.1c-3-0.6-5.2-1.3-6.4-2.3c-1.2-1-1.8-2.3-1.8-4.1
		c0-1.1,0.3-2.2,1-3.1s1.7-1.7,3-2.3c1.3-0.6,2.8-0.9,4.6-0.9c2.3,0,4.1,0.4,5.4,1.1c1.4,0.8,2.4,1.9,3.2,3.5l-3.1,2.3
		c-0.5-1.2-1.2-2.1-2.1-2.6c-0.9-0.6-2-0.8-3.4-0.8c-1.2,0-2.2,0.3-3,0.8s-1.2,1.1-1.2,1.7c0,0.7,0.4,1.3,1.1,1.8
		c0.7,0.4,2,0.8,4,1.2c2.9,0.5,4.9,1.3,6.1,2.2c1.2,1,1.8,2.3,1.8,4c0,1.8-0.8,3.3-2.4,4.5c-1.6,1.1-3.8,1.7-6.5,1.7
		C1420.8,231.6,1418.9,231.2,1417.3,230.5z"/>
	<path class="st3" d="M1455.5,210.7h6.6v3.4h-6.5v17h-4.4v-17h-3.8v-3.4h3.8v-2.9c0-2.1,0.6-3.7,1.9-4.8c1.3-1.1,3-1.7,5.3-1.7
		c0.8,0,1.6,0.1,2.3,0.3c0.7,0.2,1.2,0.4,1.6,0.7l-0.8,3.2c-0.6-0.4-1.4-0.6-2.3-0.6c-2.4,0-3.6,1.1-3.6,3.3V210.7z"/>
	<path class="st3" d="M1482.2,213.1c1.8,1.9,2.7,4.5,2.7,7.8c0,3.3-0.9,5.9-2.7,7.8c-1.8,1.9-4.3,2.8-7.5,2.8
		c-3.2,0-5.7-0.9-7.5-2.8c-1.8-1.9-2.7-4.5-2.7-7.8c0-3.3,0.9-5.9,2.7-7.8c1.8-1.9,4.3-2.8,7.5-2.8
		C1477.9,210.3,1480.4,211.2,1482.2,213.1z M1470.4,215.6c-1,1.2-1.5,3-1.5,5.3c0,2.3,0.5,4.1,1.5,5.3s2.4,1.9,4.3,1.9
		c1.9,0,3.3-0.6,4.3-1.9s1.5-3,1.5-5.3c0-2.3-0.5-4.1-1.5-5.3c-1-1.3-2.4-1.9-4.3-1.9C1472.8,213.7,1471.4,214.3,1470.4,215.6z"/>
	<path class="st3" d="M1503.3,210.7l-0.7,4c-0.6-0.4-1.5-0.5-2.6-0.5c-0.9,0-1.7,0.2-2.5,0.7c-0.8,0.5-1.4,1.2-1.9,2.1
		s-0.8,2-0.8,3.4v10.8h-4.4v-20.5h3.7l0.4,3.7c1.1-2.7,3.3-4.1,6.5-4.1C1502,210.3,1502.7,210.4,1503.3,210.7z"/>
	<path class="st3" d="M1540.6,227.4v3.8h-20.1v-27h19.6v3.8h-15.2v7.8h11.9v3.7h-11.9v8H1540.6z"/>
	<path class="st3" d="M1574.3,211.1c1.1,0.6,2.1,1.4,2.7,2.6c0.7,1.1,1,2.6,1,4.2v13.3h-4.4v-12.6c0-1.6-0.4-2.8-1.1-3.6
		c-0.8-0.8-1.8-1.1-3.1-1.1c-1.5,0-2.8,0.5-3.8,1.6s-1.5,2.6-1.5,4.5v11.1h-4.4v-12.6c0-1.6-0.4-2.8-1.1-3.6s-1.8-1.1-3.1-1.1
		c-0.9,0-1.7,0.2-2.5,0.7c-0.8,0.5-1.5,1.2-2,2.1c-0.5,1-0.8,2.2-0.8,3.6v10.9h-4.4v-20.5h3.9l0.2,3.4c0.7-1.3,1.6-2.2,2.8-2.8
		c1.2-0.6,2.5-1,3.8-1c1.5,0,2.9,0.3,4.2,1c1.2,0.7,2.2,1.7,2.8,3c0.6-1.3,1.6-2.4,2.9-3c1.3-0.7,2.7-1,4.2-1
		C1571.9,210.3,1573.2,210.6,1574.3,211.1z"/>
	<path class="st3" d="M1603.9,228.1l-0.3,2.9c-0.7,0.3-1.6,0.5-2.5,0.5c-1.2,0-2.1-0.2-2.8-0.7c-0.7-0.5-1.2-1.2-1.4-2.3
		c-0.6,1-1.6,1.7-2.8,2.2c-1.2,0.5-2.6,0.8-4.1,0.8c-2,0-3.6-0.5-4.8-1.4c-1.2-0.9-1.8-2.3-1.8-4c0-1.6,0.7-3,2-4.1s3.3-1.9,6-2.4
		l5.2-0.9v-1.1c0-1.3-0.4-2.2-1.1-3c-0.7-0.7-1.8-1.1-3.1-1.1c-2.7,0-4.5,1.2-5.3,3.7l-3.4-1.8c0.5-1.6,1.5-2.9,3-3.9
		c1.5-1,3.4-1.4,5.6-1.4c2.6,0,4.7,0.6,6.3,1.8c1.6,1.2,2.3,3,2.3,5.4v9.3c0,0.5,0.1,0.9,0.3,1.1c0.2,0.2,0.6,0.4,1.2,0.4
		C1603,228.3,1603.5,228.2,1603.9,228.1z M1594.9,227.2c1.1-0.7,1.7-1.7,1.7-2.8v-2.5l-4.5,0.9c-1.4,0.3-2.5,0.7-3.2,1.1
		c-0.7,0.5-1,1.1-1,2c0,0.8,0.3,1.3,0.8,1.7s1.3,0.6,2.3,0.6C1592.4,228.2,1593.7,227.9,1594.9,227.2z"/>
	<path class="st3" d="M1608.1,206.5c-0.5-0.5-0.8-1.2-0.8-2c0-0.9,0.3-1.5,0.8-2c0.5-0.5,1.2-0.7,2.2-0.7s1.6,0.2,2.1,0.7
		c0.5,0.5,0.8,1.1,0.8,2c0,0.9-0.3,1.5-0.8,2c-0.5,0.5-1.2,0.7-2.1,0.7S1608.6,207,1608.1,206.5z M1612.5,231.2h-4.4v-20.5h4.4
		V231.2z"/>
	<path class="st3" d="M1623.5,225.2c0,1,0.1,1.7,0.5,2.1c0.3,0.4,0.9,0.6,1.7,0.6c0.5,0,1,0,1.3-0.1s0.8-0.2,1.4-0.4l-0.5,3.5
		c-0.9,0.5-2.1,0.7-3.4,0.7c-1.8,0-3.2-0.5-4-1.4s-1.3-2.4-1.3-4.4v-24.3h4.4V225.2z"/>
	<path class="st3" d="M1636.8,226.4c0.6,0.5,0.8,1.2,0.8,2.1s-0.3,1.6-0.8,2.2c-0.6,0.5-1.3,0.8-2.2,0.8s-1.7-0.3-2.3-0.8
		c-0.6-0.5-0.9-1.3-0.9-2.2s0.3-1.6,0.8-2.1s1.3-0.8,2.3-0.8C1635.4,225.6,1636.2,225.9,1636.8,226.4z"/>
</g>
</svg>
