<svg xmlns="http://www.w3.org/2000/svg" viewBox="0 0 1874.46669 333.14027"><defs><style>.a{fill:#88171a;}.b{fill:#231f20;}</style></defs><title>wireguard</title><path class="a" d="M404.23461,252.47474L339.01977,52.48255h24.45557l49.63574,154.3418,50.90381-154.3418h22.28174L537.01928,206.462,586.83618,52.48255h23.731L545.53344,252.47474H527.41821L474.70288,91.43031,422.531,252.47474H404.23461Z" transform="translate(-1.53941)"/><path class="a" d="M606.095,252.47474V97.40834h24.63672V252.47474H606.095Z" transform="translate(-1.53941)"/><path class="a" d="M687.85131,184.90492v67.56982H663.5769V98.13295H770.09448q23.72974,0,37.13623,11.4126,13.40405,11.4126,13.40527,31.70166a41.77388,41.77388,0,0,1-10.59766,28.53125q-10.59668,12.0498-27.62549,14.76416l42.93311,67.93213H799.07885L755.24,184.90492H687.85131Zm0-22.644h82.24316q12.49951,0,19.11182-5.43457,6.61011-5.43457,6.61182-15.5791,0-10.14331-6.61182-15.48828-6.61523-5.34155-19.11182-5.34424H687.85131v41.84619Z" transform="translate(-1.53941)"/><path class="a" d="M843.51733,252.47474V97.77064h145.103v22.644H867.79174v38.58545h79.34473v22.28174H867.79174V230.193H995.323v22.28174H843.51733Z" transform="translate(-1.53941)"/><path class="a" d="M1166.02514,198.31019V168.96351h-54.52686V145.95716H1190.843v60.14258q-14.49536,24.999-37.77,38.31348-23.28,13.31543-52.80615,13.31494-44.929,0-74.18213-29.61865-29.25732-29.61768-29.25586-75.0874,0-45.65039,29.34668-75.269,29.34668-29.61768,74.09131-29.61816,27.71631,0,50.5415,12.13721a98.119,98.119,0,0,1,37.13623,34.6001l-20.83252,14.85449a68.38153,68.38153,0,0,0-27.17285-28.07861,78.54878,78.54878,0,0,0-39.67236-10.14453q-33.69434,0-55.79492,23.09717-22.10376,23.09619-22.10059,58.42139,0,35.32471,22.10059,58.33105,22.09936,23.00757,55.79492,23.00635,21.01245,0,37.40772-9.05762Q1154.06762,216.24549,1166.02514,198.31019Z" transform="translate(-1.53941)"/><path class="a" d="M1217.89135,98.13295h24.27441v99.09033q0,22.28174,10.50684,30.07129,10.50366,7.79077,41.665,7.78955,31.33813,0,41.84619-7.78955,10.50366-7.78638,10.50684-30.07129V98.13295h24.09326V203.56361q0,28.44214-18.0249,41.12158-18.0271,12.67749-58.78369,12.68066-40.5813,0-58.33105-12.49951-17.7561-12.49951-17.75293-41.30273V98.13295Z" transform="translate(-1.53941)"/><path class="a" d="M1367.03637,252.47474l78.62012-154.7041h15.2168l79.34473,154.7041h-25.90478l-20.10791-39.31006h-81.69971l-19.92676,39.31006h-25.54248Zm55.97607-59.78027h60.50488L1453.446,133.45765Z" transform="translate(-1.53941)"/><path class="a" d="M1567.08471,184.90492v67.56982H1542.8103V98.13295h106.51758q23.72974,0,37.13623,11.4126,13.40405,11.4126,13.40527,31.70166a41.77388,41.77388,0,0,1-10.59766,28.53125q-10.59668,12.0498-27.62549,14.76416l42.93311,67.93213h-26.26709l-43.83887-67.56982h-67.38867Zm0-22.644h82.24316q12.49951,0,19.11182-5.43457,6.61011-5.43457,6.61182-15.5791,0-10.14331-6.61182-15.48828-6.61523-5.34155-19.11182-5.34424h-82.24316v41.84619Z" transform="translate(-1.53941)"/><path class="a" d="M1791.77026,97.77064q37.85962,0,61.04834,21.64746,23.18628,21.64966,23.1875,56.248,0,34.96362-22.73486,55.88574-22.73584,20.92236-61.501,20.92285h-68.65674V97.77064h68.65674Zm0.3623,22.28174h-44.74463V230.193h44.74463q27.53394,0,43.29541-14.76416,15.76025-14.762,15.76025-40.125,0-24.45557-16.30371-39.85352Q1818.5808,120.05555,1792.13256,120.05238Z" transform="translate(-1.53941)"/><path class="b" d="M401.2058,304.62757v18.61377h-6.34668V282.7931h37.36963v5.92041H401.2058v10.08838h20.03467v5.82568H401.2058Z" transform="translate(-1.53941)"/><path class="b" d="M426.78,323.24134l20.55566-40.44824h3.97852l20.74512,40.44824h-6.77295L460.029,312.96351H438.66821l-5.21,10.27783H426.78Zm14.63525-15.62988h15.81934l-7.8623-15.48779Z" transform="translate(-1.53941)"/><path class="b" d="M476.55688,318.07875l3.07861-5.30469a35.51245,35.51245,0,0,0,9.09375,4.35742,31.14424,31.14424,0,0,0,9.42529,1.563,15.50479,15.50479,0,0,0,8.71484-2.20215,6.58266,6.58266,0,0,0,3.31543-5.66016,5.50593,5.50593,0,0,0-3.03125-5.13867q-3.03149-1.68091-9.56738-1.87109-11.03613-.14209-15.15625-2.55762-4.12061-2.41553-4.12061-8.00439a9.7851,9.7851,0,0,1,4.52295-8.3833q4.52271-3.17285,12.14893-3.17334A35.06117,35.06117,0,0,1,505.093,283.172a37.80268,37.80268,0,0,1,9.44922,4.35742l-3.17334,5.25732a31.90736,31.90736,0,0,0-8.14648-3.95459,27.29832,27.29832,0,0,0-8.33594-1.39746,14.73635,14.73635,0,0,0-7.38867,1.61035,4.78354,4.78354,0,0,0-2.79443,4.21533,3.93828,3.93828,0,0,0,2.81836,3.83643q2.81689,1.13672,9.78027,1.13672,9.66211,0,14.58789,3.26807,4.92554,3.26807,4.92578,9.70947a11.50907,11.50907,0,0,1-4.99707,9.52q-4.99731,3.78882-12.95361,3.78906a41.78436,41.78436,0,0,1-11.67529-1.68115A40.76306,40.76306,0,0,1,476.55688,318.07875Z" transform="translate(-1.53941)"/><path class="b" d="M539.59545,323.24134v-34.812H522.54467V282.7931h40.44824v5.63623H545.89477v34.812h-6.29932Z" transform="translate(-1.53941)"/><path class="b" d="M576.06323,331.48255a38.39386,38.39386,0,0,0,2.46289-4.12061,27.12594,27.12594,0,0,0,1.70508-4.12061h-0.37891a3.00365,3.00365,0,0,1-2.43945-1.208,4.718,4.718,0,0,1-.9707-3.05469,4.83036,4.83036,0,0,1,1.16016-3.33887,3.73769,3.73769,0,0,1,2.91309-1.30273,3.78616,3.78616,0,0,1,3.2207,1.72852,7.89965,7.89965,0,0,1,1.23145,4.66553,11.548,11.548,0,0,1-1.7998,5.70752,34.64583,34.64583,0,0,1-5.35205,6.70166Z" transform="translate(-1.53941)"/><path class="b" d="M639.6687,323.24134V282.7931H644.926l16.57715,23.68164,16.57715-23.68164h5.25732v40.44824h-6.29932V294.16029l-15.53516,22.49756-15.48779-22.49756v29.08105H639.6687Z" transform="translate(-1.53941)"/><path class="b" d="M720.37377,324.52015q-10.79883,0-17.76123-6.10986a20.39007,20.39007,0,0,1-.02393-30.668q6.93823-6.03809,17.78516-6.03857,10.94092,0,17.87988,6.01514a20.44182,20.44182,0,0,1-.02393,30.71484Q731.26733,324.52088,720.37377,324.52015Zm0-5.92041q8.09912,0,13.21436-4.38086a14.67075,14.67075,0,0,0-.02393-22.28467q-5.1394-4.40479-13.19043-4.40479-8.05225,0-13.14355,4.38086a14.76435,14.76435,0,0,0,0,22.30859Q712.32128,318.60023,720.37377,318.59974Z" transform="translate(-1.53941)"/><path class="b" d="M775.45532,282.7931q9.89868,0,15.96143,5.66016,6.06226,5.66016,6.0625,14.70605,0,9.14136-5.94385,14.61133-5.94507,5.47119-16.08008,5.4707H757.50463V282.7931h17.95068Zm0.09473,5.82568H763.85131v28.79688H775.55q7.199,0,11.31982-3.85986,4.12061-3.85986,4.12061-10.49121a13.68578,13.68578,0,0,0-4.2627-10.41992Q782.46508,288.61927,775.55,288.61879Z" transform="translate(-1.53941)"/><path class="b" d="M809.41284,323.24134V282.7931h37.938v5.92041H815.75952v10.08838h20.74512v5.82568H815.75952v12.78809h33.34375v5.82568H809.41284Z" transform="translate(-1.53941)"/><path class="b" d="M866.48364,305.57484v17.6665H860.137V282.88783h27.84961q6.20435,0,9.70947,2.98389a10.30086,10.30086,0,0,1,3.50488,8.28857,10.92585,10.92585,0,0,1-2.77051,7.46,11.75642,11.75642,0,0,1-7.22314,3.85986l11.2251,17.76123h-6.86768l-11.46191-17.6665H866.48364Zm0-5.92041h21.50293a7.69267,7.69267,0,0,0,4.99658-1.4209,4.97172,4.97172,0,0,0,1.729-4.07324,4.90475,4.90475,0,0,0-1.729-4.0498,7.79008,7.79008,0,0,0-4.99658-1.397H866.48364v10.94092Z" transform="translate(-1.53941)"/><path class="b" d="M914.65014,323.24134V282.7931h3.31543l25.71826,28.418v-28.418h6.20459v40.44824H946.573l-25.6709-28.32324v28.32324h-6.252Z" transform="translate(-1.53941)"/><path class="b" d="M970.53686,331.48255a38.39386,38.39386,0,0,0,2.46289-4.12061,27.12594,27.12594,0,0,0,1.70508-4.12061h-0.37891a3.00365,3.00365,0,0,1-2.43945-1.208,4.718,4.718,0,0,1-.9707-3.05469,4.83036,4.83036,0,0,1,1.16016-3.33887A3.73769,3.73769,0,0,1,974.989,314.337a3.78616,3.78616,0,0,1,3.2207,1.72852,7.89965,7.89965,0,0,1,1.23145,4.66553,11.548,11.548,0,0,1-1.7998,5.70752,34.64584,34.64584,0,0,1-5.35205,6.70166Z" transform="translate(-1.53941)"/><path class="b" d="M1030.68481,318.07875l3.07861-5.30469a35.51244,35.51244,0,0,0,9.09375,4.35742,31.14424,31.14424,0,0,0,9.42529,1.563,15.50479,15.50479,0,0,0,8.71484-2.20215,6.58266,6.58266,0,0,0,3.31543-5.66016,5.50593,5.50593,0,0,0-3.03125-5.13867q-3.03149-1.68091-9.56738-1.87109-11.03613-.14209-15.15625-2.55762-4.12061-2.41553-4.12061-8.00439a9.78509,9.78509,0,0,1,4.52295-8.3833q4.52271-3.17285,12.14893-3.17334a35.06116,35.06116,0,0,1,10.11182,1.46826,37.80267,37.80267,0,0,1,9.44922,4.35742l-3.17334,5.25732a31.90736,31.90736,0,0,0-8.14648-3.95459,27.29832,27.29832,0,0,0-8.33594-1.39746,14.73635,14.73635,0,0,0-7.38867,1.61035,4.78354,4.78354,0,0,0-2.79443,4.21533,3.93828,3.93828,0,0,0,2.81836,3.83643q2.81689,1.13672,9.78027,1.13672,9.66211,0,14.58789,3.26807,4.92554,3.26807,4.92578,9.70947a11.50907,11.50907,0,0,1-4.99707,9.52q-4.99731,3.78882-12.95361,3.78906a41.78436,41.78436,0,0,1-11.67529-1.68115A40.76306,40.76306,0,0,1,1030.68481,318.07875Z" transform="translate(-1.53941)"/><path class="b" d="M1084.10864,323.24134V282.7931h37.938v5.92041h-31.59131v10.08838h20.74512v5.82568h-20.74512v12.78809h33.34375v5.82568h-39.69043Z" transform="translate(-1.53941)"/><path class="b" d="M1177.55444,313.34242a22.94636,22.94636,0,0,1-9.06982,8.312,27.67963,27.67963,0,0,1-12.76465,2.86572q-10.65674,0-17.54785-6.03857a20.53111,20.53111,0,0,1,0-30.69141q6.89063-6.08569,17.54785-6.08643a28.4155,28.4155,0,0,1,12.03027,2.48682,21.88981,21.88981,0,0,1,8.71484,7.0332l-5.02051,3.50488a16.43155,16.43155,0,0,0-6.60742-5.32812,21.69885,21.69885,0,0,0-9.11719-1.87109,18.88847,18.88847,0,0,0-12.85937,4.42871,14.63734,14.63734,0,0,0,.02393,22.21289,18.9058,18.9058,0,0,0,12.83545,4.42871,20.43372,20.43372,0,0,0,9.52-2.13135,20.20782,20.20782,0,0,0,7.24658-6.63086Z" transform="translate(-1.53941)"/><path class="b" d="M1190.19848,282.88783h6.34668v25.90771q0,5.82568,2.74707,7.8623,2.74658,2.03687,10.89355,2.03662,8.1936,0,10.94092-2.03662,2.74658-2.03613,2.74707-7.8623V282.88783h6.29932v27.56543q0,7.43628-4.7124,10.75146-4.71387,3.31494-15.36963,3.31543-10.60986,0-15.251-3.26807-4.64209-3.26807-4.6416-10.79883V282.88783Z" transform="translate(-1.53941)"/><path class="b" d="M1252.43188,305.57484v17.6665h-6.34668V282.88783h27.84961q6.20434,0,9.70947,2.98389a10.30086,10.30086,0,0,1,3.50488,8.28857,10.92585,10.92585,0,0,1-2.77051,7.46,11.75642,11.75642,0,0,1-7.22314,3.85986l11.2251,17.76123h-6.86767l-11.46191-17.6665h-17.61914Zm0-5.92041h21.50293a7.69267,7.69267,0,0,0,4.99658-1.4209,4.97173,4.97173,0,0,0,1.729-4.07324,4.90475,4.90475,0,0,0-1.729-4.0498,7.79008,7.79008,0,0,0-4.99658-1.397h-21.50293v10.94092Z" transform="translate(-1.53941)"/><path class="b" d="M1300.50366,323.24134V282.7931h37.938v5.92041h-31.59131v10.08838h20.74512v5.82568h-20.74512v12.78809h33.34375v5.82568h-39.69043Z" transform="translate(-1.53941)"/><path class="b" d="M1403.04125,323.24134h-3.26807l-20.31885-40.44824h6.72559l15.20361,30.26514,14.9668-30.26514h6.9624Z" transform="translate(-1.53941)"/><path class="b" d="M1439.55688,305.57484v17.6665h-6.34668V282.7931h29.4126q6.252,0,9.7334,2.96a10.31992,10.31992,0,0,1,3.481,8.3125,10.81876,10.81876,0,0,1-3.45752,8.28857,12.80549,12.80549,0,0,1-9.09375,3.2207h-23.729Zm0-5.92041h23.06592a7.60966,7.60966,0,0,0,4.94922-1.4209,5.68952,5.68952,0,0,0,.07129-8.09912,7.07206,7.07206,0,0,0-4.73633-1.4209h-23.3501v10.94092Z" transform="translate(-1.53941)"/><path class="b" d="M1486.77612,323.24134V282.7931h3.31543l25.71826,28.418v-28.418h6.20459v40.44824H1518.699l-25.6709-28.32324v28.32324h-6.252Z" transform="translate(-1.53941)"/><path class="b" d="M1581.64086,323.24134v-34.812h-17.05078V282.7931h40.44824v5.63623h-17.09814v34.812h-6.29932Z" transform="translate(-1.53941)"/><path class="b" d="M1613.32495,282.88783h6.34668v25.90771q0,5.82568,2.74707,7.8623,2.74658,2.03687,10.89355,2.03662,8.1936,0,10.94092-2.03662,2.74658-2.03613,2.74707-7.8623V282.88783h6.29932v27.56543q0,7.43628-4.7124,10.75146-4.71387,3.31494-15.36963,3.31543-10.60986,0-15.251-3.26807-4.64209-3.26807-4.6416-10.79883V282.88783Z" transform="translate(-1.53941)"/><path class="b" d="M1669.21166,323.24134V282.7931h3.31543l25.71826,28.418v-28.418h6.20459v40.44824h-3.31543l-25.6709-28.32324v28.32324h-6.252Z" transform="translate(-1.53941)"/><path class="b" d="M1720.31469,323.24134V282.7931h3.31543l25.71826,28.418v-28.418h6.20459v40.44824h-3.31543l-25.6709-28.32324v28.32324h-6.252Z" transform="translate(-1.53941)"/><path class="b" d="M1771.323,323.24134V282.7931h37.938v5.92041h-31.59131v10.08838h20.74512v5.82568h-20.74512v12.78809h33.34375v5.82568H1771.323Z" transform="translate(-1.53941)"/><path class="b" d="M1821.95288,323.24134V282.7931h6.34668v34.62256h30.02832v5.82568h-36.375Z" transform="translate(-1.53941)"/><path class="a" d="M301.28058,145.5639S308.22015,0,148.24274,0C6.75977,0,2.34473,139.63171,2.34473,139.63171S-18.46661,300,151.50122,300C314.52588,300,301.28058,145.5639,301.28058,145.5639ZM103.48248,94.70117c30.01733-18.364,68.36572-7.14014,82.73535,20.47644,2.72327,5.23383,3.0694,13.2912,1.34467,18.78186C181.60791,152.91541,167.548,163.546,148.25,168.06213c5.68921-4.87073,10.21771-10.39374,11.65906-18.025a26.402,26.402,0,0,0-4.54248-20.9563,26.75984,26.75984,0,0,0-30.811-9.38922c-11.881,4.51111-18.38922,15.35431-17.21594,28.683,1.08984,12.381,10.48419,20.405,28.06128,23.45325-2.627,1.39038-4.65033,2.41443-6.62988,3.51715a63.9183,63.9183,0,0,0-20.54382,17.868c-1.78394,2.40839-3.01044,2.60236-5.727.94116C67.162,172.54419,64.891,118.31067,103.48248,94.70117ZM77.03339,228.229c-5.67688,1.441-11.178,3.57422-16.98132,5.47754,2.8385-19.15149,25.26538-36.788,44.23035-34.77588A48.88082,48.88082,0,0,0,95.04047,224.824C88.73852,225.98456,82.79932,226.76538,77.03339,228.229ZM197.81879,41.24548c5.60986,0.20612,11.2298.12091,16.84351,0.25378a29.05249,29.05249,0,0,1,4.16736.58069,40.60683,40.60683,0,0,1-4.23566,5.43323c-2.007,1.87012-4.27454,3.69861-7.16614.856-0.6955-.68372-2.33856-0.52679-3.54871-0.54272-5.58228-.07336-11.1723-0.25177-16.74634-0.04132a104.03625,104.03625,0,0,0-14.42487,1.473c-0.89368.16046-2.22986,3.13147-1.81909,4.22705,0.9693,2.58527,2.3833,5.43634,4.47791,7.08978,7.7403,6.11,15.97186,11.59558,23.7475,17.66364,7.556,5.89661,14.58893,12.35828,18.87463,21.253,5.58429,11.59021,5.747,23.74323,3.33881,35.94989-4.02032,20.3783-14.33276,37.26141-31.03235,49.52374-6.72876,4.941-15.06018,7.74512-22.7666,11.29529-6.778,3.1225-13.75494,5.81152-20.54907,8.90076-12.24872,5.56952-19.13324,18.86505-17.10785,32.68829,1.85852,12.68457,12.98676,23.27069,25.73529,25.45642,15.29175,2.62164,31.07129-7.31628,34.81219-22.85962,4.20667-17.47815-5.28979-33.08289-23.06512-37.81348-0.78271-.20831-1.56836-0.40552-3.20123-0.8269,4.75494-2.12451,8.86145-3.63806,12.65277-5.72443q9.9213-5.45938,19.48108-11.56165c1.87421-1.199,2.88684-1.19958,4.48517.18225,12.2251,10.56976,19.51788,23.71832,21.56256,39.83881,3.38452,26.68414-9.24713,51.19763-33.0719,63.76233C152.403,307.74237,107.298,285.61694,99.15619,244.751c-6.97382-35.0033,17.73-66.75427,47.46173-72.88428,12.787-2.63641,24.48-7.95959,33.57007-17.80737,5.86517-6.35413,8.70837-11.80554,9.67725-14.2663a39.56455,39.56455,0,0,0,2.72113-14.46893,33.86737,33.86737,0,0,0-2.96539-12.39832c-3.104-7.075-14.99512-18.33044-17.93927-20.7038L143.6814,70.301c-0.98761-.81256-2.09937-0.75366-4.50793-0.59045-2.86108.19391-10.17462,0.59888-13.33093-.22815,2.553-1.93207,9.51324-4.74512,12.50208-7.007-9.07336-6.1297-19.42969-3.91583-28.94141-5.74609,2.19916-4.09589,13.0813-10.38959,19.27-11.09064a91.53259,91.53259,0,0,0-1.68756-10.281c-0.37781-1.39166-1.93115-2.74078-3.28644-3.53546-3.28595-1.9267-6.76941-3.51666-10.54877-5.43268A21.93606,21.93606,0,0,1,124.48218,22.884,42.31646,42.31646,0,0,1,135.83,23.98956c6.74225,1.54053,12.12445.53491,17.48822-4.048-4.222-1.7002-8.44354-3.25354-12.53778-5.0907a123.04457,123.04457,0,0,1-11.77881-6.15833c10.62213,1.47546,20.89606,5.4585,31.75671,4.00336q0.1387-.74048.27728-1.4809c-8.11945-1.88989-16.239-3.77985-25.22919-5.87244,15.04-1.37689,29.0423-1.604,42.30133,4.85406,3.731,1.81726,7.63483,3.32147,11.211,5.39716,1.74432,1.01245,2.91858,3.00781,4.34955,4.55945,1.1366,1.23248,2.0495,2.88373,3.446,3.6264,5.3,2.81842,11.134,2.92908,17.07764,2.7879,0.04443-.67694.08606-1.3114,0.1308-1.99329,5.98212,1.86932,12.71521,8.76788,12.70386,13.80579-9.6911,0-19.37439-.037-29.05646.05389-1.03479.0097-2.06262,0.76563-3.09363,1.17542C195.85638,40.18,196.81934,41.20874,197.81879,41.24548Z" transform="translate(-1.53941)"/><path class="a" d="M185.325,26.90588a1.48065,1.48065,0,0,0-.18927,2.36865,2.23258,2.23258,0,0,0,3.07245.8219c0.9328-.47052,1.84784-0.97137,2.975-1.56647-0.9079-.775-1.63623-1.41479-2.38574-2.03241C187.47949,25.41156,186.38641,26.09369,185.325,26.90588Z" transform="translate(-1.53941)"/></svg>