<?xml version="1.0" encoding="UTF-8" standalone="no"?>
<!DOCTYPE svg PUBLIC "-//W3C//DTD SVG 1.1//EN" "http://www.w3.org/Graphics/SVG/1.1/DTD/svg11.dtd">
<svg width="100%" height="100%" viewBox="0 0 502 64" version="1.1" xmlns="http://www.w3.org/2000/svg" xmlns:xlink="http://www.w3.org/1999/xlink" xml:space="preserve" style="fill-rule:evenodd;clip-rule:evenodd;stroke-linejoin:round;stroke-miterlimit:1.41421;"><g><g><path d="M71.952,45.455l0,-10.912l5.289,0l1.209,5.592c0.081,0.403 0.187,0.675 0.318,0.816c0.131,0.141 0.378,0.282 0.74,0.423c2.136,0.605 4.182,0.907 6.136,0.907c0.061,0 0.121,0 0.182,0c6.146,0 9.219,-2.328 9.219,-6.983c0,-1.188 -0.227,-2.221 -0.68,-3.098c-0.454,-0.876 -1.164,-1.602 -2.131,-2.176c-0.967,-0.574 -1.874,-1.028 -2.721,-1.36c-0.846,-0.333 -2.015,-0.701 -3.506,-1.104c-4.05,-1.188 -6.811,-2.267 -8.282,-3.234c-3.184,-2.096 -4.776,-5.33 -4.776,-9.703c0,-4.332 1.476,-7.602 4.428,-9.808c2.953,-2.207 6.806,-3.31 11.562,-3.31c4.091,0 8.071,0.756 11.94,2.267l0,11.154l-5.32,-0.484l-0.877,-5.138c-0.121,-0.625 -0.322,-1.018 -0.604,-1.179c-1.109,-0.665 -2.932,-0.998 -5.471,-0.998c-2.761,0 -4.862,0.569 -6.303,1.708c-1.44,1.139 -2.161,2.715 -2.161,4.73c0,0.907 0.187,1.733 0.559,2.479c0.373,0.746 0.786,1.345 1.24,1.799c0.453,0.453 1.153,0.906 2.1,1.36c0.947,0.453 1.748,0.791 2.403,1.012c0.655,0.222 1.607,0.524 2.857,0.907c1.652,0.504 2.902,0.907 3.748,1.209c0.846,0.302 1.96,0.826 3.34,1.572c1.38,0.746 2.423,1.531 3.128,2.358c0.706,0.826 1.335,1.939 1.89,3.34c0.554,1.4 0.831,2.987 0.831,4.76c0,4.615 -1.557,8.021 -4.67,10.217c-3.114,2.197 -7.149,3.295 -12.106,3.295c-2.599,0 -5.194,-0.257 -7.783,-0.771c-2.59,-0.514 -4.499,-1.063 -5.728,-1.647Z" style="fill:#fff;fill-rule:nonzero;"/><path d="M105.047,19.127l0.575,-4.02l10.7,0l0,20.675c0,2.237 0.282,3.859 0.846,4.867c0.565,1.007 1.663,1.511 3.295,1.511c2.922,0 5.793,-1.441 8.615,-4.322l0,-16.595c0,-0.504 -0.051,-0.836 -0.152,-0.997c-0.1,-0.162 -0.382,-0.283 -0.846,-0.363l-2.962,-0.756l0.544,-4.02l10.549,0l0,26.388c0,0.746 0.262,1.159 0.786,1.239l3.234,0.423l0,3.96l-9.793,0l-0.544,-3.778l-0.182,-0.061c-3.828,3.063 -7.687,4.595 -11.576,4.595c-3.265,0 -5.567,-0.837 -6.907,-2.509c-1.34,-1.673 -2.01,-4.353 -2.01,-8.04l0,-16.081c0,-0.504 -0.056,-0.836 -0.167,-0.997c-0.11,-0.162 -0.387,-0.283 -0.831,-0.363l-3.174,-0.756Z" style="fill:#fff;fill-rule:nonzero;"/><path d="M141.012,4.346l0.605,-3.959l10.791,0l0,17.44c3.506,-2.216 6.881,-3.325 10.126,-3.325c0.02,0 0.05,0 0.09,0c3.627,0 6.504,1.27 8.63,3.809c2.126,2.539 3.189,6.469 3.189,11.788c0,6.106 -1.169,10.595 -3.506,13.466c-2.338,2.872 -5.562,4.308 -9.673,4.308c-3.708,0 -6.791,-1.219 -9.249,-3.658l-0.242,0l-0.363,2.902l-6.861,0c0.524,-2.962 0.786,-5.834 0.786,-8.615c0,-0.1 0,-0.201 0,-0.302l0,-31.375c0,-0.705 -0.262,-1.139 -0.786,-1.3l-3.537,-1.179Zm11.456,34.217c2.519,2.358 5.078,3.536 7.678,3.536c4.614,0 6.922,-3.858 6.922,-11.576c0,-3.305 -0.57,-5.834 -1.708,-7.587c-1.139,-1.753 -2.736,-2.63 -4.791,-2.63c-2.519,0 -5.219,1.018 -8.101,3.053l0,15.204Z" style="fill:#fff;fill-rule:nonzero;"/><path d="M176.735,47.117l0,-3.899l3.537,-0.484c0.403,-0.04 0.67,-0.146 0.801,-0.317c0.131,-0.171 0.196,-0.479 0.196,-0.922l0,-34.67c0,-0.705 -0.272,-1.139 -0.816,-1.3l-3.537,-1.179l0.635,-3.959l10.821,0l0,41.108c0,0.504 0.056,0.826 0.167,0.967c0.11,0.141 0.387,0.232 0.831,0.272l3.476,0.423l0,3.96l-16.111,0Z" style="fill:#fff;fill-rule:nonzero;"/><path d="M196.415,47.117l0,-3.899l3.718,-0.484c0.403,-0.04 0.67,-0.146 0.801,-0.317c0.131,-0.171 0.197,-0.479 0.197,-0.922l0,-19.95c0,-0.705 -0.273,-1.138 -0.817,-1.299l-3.415,-1.179l0.635,-3.96l10.7,0l0,26.388c0,0.504 0.055,0.826 0.166,0.967c0.111,0.141 0.388,0.232 0.831,0.272l3.658,0.423l0,3.96l-16.474,0Zm2.841,-42.71c0,-1.451 0.403,-2.569 1.21,-3.355c0.806,-0.786 1.954,-1.179 3.445,-1.179c1.451,0 2.59,0.393 3.416,1.179c0.826,0.786 1.239,1.904 1.239,3.355c0,1.491 -0.413,2.635 -1.239,3.431c-0.826,0.795 -1.965,1.193 -3.416,1.193c-1.491,0 -2.639,-0.398 -3.445,-1.193c-0.807,-0.796 -1.21,-1.94 -1.21,-3.431Z" style="fill:#fff;fill-rule:nonzero;"/><path d="M215.952,19.067l0.634,-3.96l9.159,0l0.484,3.476l0.272,0.061c3.627,-2.761 7.153,-4.142 10.579,-4.142c3.506,0 5.965,1.24 7.375,3.718c3.829,-2.478 7.416,-3.718 10.761,-3.718c3.265,0 5.597,0.907 6.998,2.721c1.4,1.813 2.1,4.433 2.1,7.859l0,16.413c0,0.504 0.051,0.826 0.152,0.967c0.1,0.141 0.382,0.232 0.846,0.272l3.385,0.423l0,3.96l-15.718,0l0,-3.899l3.235,-0.423c0.665,-0.081 0.987,-0.494 0.967,-1.24l0,-14.569c0,-2.096 -0.257,-3.703 -0.771,-4.821c-0.514,-1.118 -1.557,-1.678 -3.128,-1.678c-2.519,0 -5.048,0.827 -7.587,2.479c0.161,0.947 0.242,2.106 0.242,3.476l0,15.053c0,0.504 0.05,0.826 0.151,0.967c0.1,0.141 0.372,0.232 0.816,0.272l2.871,0.423l0,3.96l-15.234,0l0,-3.899l3.265,-0.423c0.403,-0.041 0.67,-0.156 0.801,-0.348c0.131,-0.191 0.196,-0.489 0.196,-0.892l0,-14.236c0,-1.109 -0.03,-1.995 -0.091,-2.66c-0.06,-0.665 -0.201,-1.361 -0.423,-2.086c-0.221,-0.725 -0.614,-1.264 -1.179,-1.617c-0.564,-0.353 -1.279,-0.529 -2.146,-0.529c-2.438,0 -4.997,1.058 -7.677,3.174l0,17.894c0,0.504 0.055,0.826 0.166,0.967c0.111,0.141 0.388,0.232 0.831,0.272l3.023,0.423l0,3.96l-15.083,0l0,-3.899l2.962,-0.484c0.403,-0.04 0.67,-0.146 0.801,-0.317c0.131,-0.171 0.196,-0.479 0.196,-0.922l0,-19.95c0,-0.705 -0.272,-1.138 -0.816,-1.299l-3.415,-1.179Z" style="fill:#fff;fill-rule:nonzero;"/><path d="M271.113,30.946c0,-5.36 1.36,-9.441 4.08,-12.242c2.721,-2.801 6.227,-4.202 10.519,-4.202c8.746,0 13.119,4.968 13.119,14.902c0,1.229 -0.061,2.428 -0.182,3.597l-19.979,0c0.161,3.023 0.901,5.305 2.221,6.847c1.32,1.541 3.421,2.312 6.302,2.312c2.6,0 5.633,-0.726 9.099,-2.176l1.995,4.957c-3.789,1.934 -7.748,2.912 -11.879,2.932c-10.197,-0.02 -15.295,-5.663 -15.295,-16.927Zm7.617,-3.083l12.997,0c0,-5.32 -2.045,-7.98 -6.136,-7.98c-1.894,0 -3.471,0.66 -4.73,1.98c-1.259,1.32 -1.97,3.32 -2.131,6Z" style="fill:#fff;fill-rule:nonzero;"/></g><g><path d="M323.452,13.686l0,-11.395l38.206,0l0,11.395l-5.138,0l-0.998,-5.38c-0.08,-0.463 -0.413,-0.695 -0.997,-0.695l-8.343,0l0,33.823c0,0.464 0.051,0.761 0.151,0.892c0.101,0.131 0.383,0.217 0.847,0.257l6.801,0.514l0,4.02l-22.429,0l0,-4.02l6.378,-0.423c0.403,-0.041 0.67,-0.136 0.801,-0.287c0.131,-0.152 0.197,-0.469 0.197,-0.953l0,-33.823l-8.282,0c-0.585,0 -0.917,0.232 -0.998,0.695l-0.997,5.38l-5.199,0Z" style="fill:#fff;fill-rule:nonzero;"/><path d="M360.721,30.946c0,-5.36 1.36,-9.441 4.081,-12.242c2.72,-2.801 6.227,-4.202 10.519,-4.202c8.745,0 13.118,4.968 13.118,14.902c0,1.229 -0.06,2.428 -0.181,3.597l-19.98,0c0.161,3.023 0.902,5.305 2.222,6.847c1.319,1.541 3.42,2.312 6.302,2.312c2.599,0 5.632,-0.726 9.098,-2.176l1.995,4.957c-3.788,1.934 -7.748,2.912 -11.879,2.932c-10.197,-0.02 -15.295,-5.663 -15.295,-16.927Zm7.617,-3.083l12.998,0c0,-5.32 -2.046,-7.98 -6.136,-7.98c-1.894,0 -3.471,0.66 -4.731,1.98c-1.259,1.32 -1.969,3.32 -2.131,6Z" style="fill:#fff;fill-rule:nonzero;"/><path d="M392.346,47.117l0,-3.899l2.841,-0.544c0.705,-0.121 1.32,-0.494 1.844,-1.119l8.493,-10.156l-8.493,-10.519c-0.464,-0.544 -0.957,-0.896 -1.481,-1.058l-2.6,-0.695l0.635,-4.02l14.297,0l0,4.02l-3.476,0.514l5.743,7.345l6.257,-7.345l-3.778,-0.514l0.635,-4.02l12.695,0l0,4.02l-2.721,0.635c-0.584,0.201 -1.148,0.594 -1.692,1.179l-7.98,9.4l8.917,11.154c0.584,0.665 1.138,1.028 1.662,1.088l3.113,0.574l0,3.96l-15.869,0l0,-3.96l3.477,-0.574l-6.016,-7.859l-6.377,7.859l3.778,0.574l0,3.96l-13.904,0Z" style="fill:#fff;fill-rule:nonzero;"/><path d="M429.662,19.376l0,-4.383c2.317,-0.282 4.05,-1.189 5.199,-2.72c1.148,-1.532 1.934,-2.939 2.357,-5.841l4.504,0l0,8.07c0,0.404 0.171,0.605 0.514,0.605l8.977,0l0,5.078l-9.491,0l0,16.836c0,1.935 0.323,3.295 0.967,4.081c0.645,0.786 1.814,1.179 3.507,1.179c1.572,0 3.365,-0.353 5.38,-1.058l1.421,4.473c-3.144,1.451 -6.197,2.177 -9.159,2.177c-3.224,0 -5.567,-0.726 -7.028,-2.177c-1.461,-1.45 -2.191,-3.717 -2.191,-6.801l0,-18.075c0,-0.403 -0.213,-0.519 -0.508,-0.703c-1.012,-0.634 -4.449,-0.741 -4.449,-0.741Z" style="fill:#fff;fill-rule:nonzero;"/></g><g><path d="M35.995,26.563c0,-0.548 -0.405,-0.864 -0.902,-0.707l-34.191,10.842c-0.498,0.158 -0.902,0.731 -0.902,1.278l0,11.081c0,0.548 0.404,0.865 0.902,0.707l34.191,-10.841c0.497,-0.158 0.902,-0.731 0.902,-1.279l0,-11.081Z" style="fill:url(#_Linear1);"/><path d="M0,26.21c0,0.548 0.404,1.121 0.902,1.279l34.196,10.843c0.498,0.158 0.902,-0.159 0.902,-0.706l0,-11.082c0,-0.547 -0.404,-1.12 -0.902,-1.278l-34.196,-10.843c-0.498,-0.158 -0.902,0.158 -0.902,0.706l0,11.081Z" style="fill:#ff9800;"/><path d="M35.995,3.793c0,-0.548 -0.405,-0.865 -0.902,-0.707l-34.191,10.841c-0.498,0.158 -0.902,0.731 -0.902,1.279l0,11.081c0,0.548 0.404,0.864 0.902,0.707l34.191,-10.842c0.497,-0.158 0.902,-0.731 0.902,-1.278l0,-11.081Z" style="fill:#ff9800;"/></g></g><defs><linearGradient id="_Linear1" x1="0" y1="0" x2="1" y2="0" gradientUnits="userSpaceOnUse" gradientTransform="matrix(3.08228,-10.3064,8.72379,3.56577,19.8394,42.498)"><stop offset="0" style="stop-color:#ff9700;stop-opacity:1"/><stop offset="0.53" style="stop-color:#f48e00;stop-opacity:1"/><stop offset="1" style="stop-color:#d06f00;stop-opacity:1"/></linearGradient></defs></svg>